<mxfile host="Electron" modified="2024-07-27T23:33:52.829Z" agent="Mozilla/5.0 (Macintosh; Intel Mac OS X 10_15_7) AppleWebKit/537.36 (KHTML, like Gecko) draw.io/21.1.2 Chrome/106.0.5249.199 Electron/21.4.3 Safari/537.36" etag="AA31WdzOOTpNVwzkx14A" version="21.1.2" type="device">
  <diagram id="C5RBs43oDa-KdzZeNtuy" name="Page-1">
    <mxGraphModel dx="3359" dy="2567" grid="1" gridSize="10" guides="1" tooltips="1" connect="1" arrows="1" fold="1" page="1" pageScale="1" pageWidth="827" pageHeight="1169" math="0" shadow="0">
      <root>
        <mxCell id="WIyWlLk6GJQsqaUBKTNV-0" />
        <mxCell id="WIyWlLk6GJQsqaUBKTNV-1" parent="WIyWlLk6GJQsqaUBKTNV-0" />
        <mxCell id="zkfFHV4jXpPFQw0GAbJ--0" value="Ataque" style="swimlane;fontStyle=2;align=center;verticalAlign=top;childLayout=stackLayout;horizontal=1;startSize=26;horizontalStack=0;resizeParent=1;resizeLast=0;collapsible=1;marginBottom=0;rounded=0;shadow=0;strokeWidth=1;" parent="WIyWlLk6GJQsqaUBKTNV-1" vertex="1">
          <mxGeometry x="930" y="-220" width="230" height="230" as="geometry">
            <mxRectangle x="230" y="140" width="160" height="26" as="alternateBounds" />
          </mxGeometry>
        </mxCell>
        <mxCell id="zkfFHV4jXpPFQw0GAbJ--1" value="- String : nombre" style="text;align=left;verticalAlign=top;spacingLeft=4;spacingRight=4;overflow=hidden;rotatable=0;points=[[0,0.5],[1,0.5]];portConstraint=eastwest;" parent="zkfFHV4jXpPFQw0GAbJ--0" vertex="1">
          <mxGeometry y="26" width="230" height="26" as="geometry" />
        </mxCell>
        <mxCell id="zkfFHV4jXpPFQw0GAbJ--2" value="- int : id" style="text;align=left;verticalAlign=top;spacingLeft=4;spacingRight=4;overflow=hidden;rotatable=0;points=[[0,0.5],[1,0.5]];portConstraint=eastwest;rounded=0;shadow=0;html=0;" parent="zkfFHV4jXpPFQw0GAbJ--0" vertex="1">
          <mxGeometry y="52" width="230" height="26" as="geometry" />
        </mxCell>
        <mxCell id="zkfFHV4jXpPFQw0GAbJ--3" value="- int : puntos" style="text;align=left;verticalAlign=top;spacingLeft=4;spacingRight=4;overflow=hidden;rotatable=0;points=[[0,0.5],[1,0.5]];portConstraint=eastwest;rounded=0;shadow=0;html=0;" parent="zkfFHV4jXpPFQw0GAbJ--0" vertex="1">
          <mxGeometry y="78" width="230" height="26" as="geometry" />
        </mxCell>
        <mxCell id="zkfFHV4jXpPFQw0GAbJ--4" value="" style="line;html=1;strokeWidth=1;align=left;verticalAlign=middle;spacingTop=-1;spacingLeft=3;spacingRight=3;rotatable=0;labelPosition=right;points=[];portConstraint=eastwest;" parent="zkfFHV4jXpPFQw0GAbJ--0" vertex="1">
          <mxGeometry y="104" width="230" height="8" as="geometry" />
        </mxCell>
        <mxCell id="zkfFHV4jXpPFQw0GAbJ--5" value="+ Ataque(String nombre, int id, int puntos)&#xa;&#xa;+ String getNombre()&#xa;&#xa;+ int getTipo()&#xa;&#xa;+ int getPuntos()" style="text;align=left;verticalAlign=top;spacingLeft=4;spacingRight=4;overflow=hidden;rotatable=0;points=[[0,0.5],[1,0.5]];portConstraint=eastwest;" parent="zkfFHV4jXpPFQw0GAbJ--0" vertex="1">
          <mxGeometry y="112" width="230" height="108" as="geometry" />
        </mxCell>
        <mxCell id="Pd0jKTeFEKSQe4IaCQ_c-6" value="Defensa" style="swimlane;fontStyle=2;align=center;verticalAlign=top;childLayout=stackLayout;horizontal=1;startSize=26;horizontalStack=0;resizeParent=1;resizeLast=0;collapsible=1;marginBottom=0;rounded=0;shadow=0;strokeWidth=1;" vertex="1" parent="WIyWlLk6GJQsqaUBKTNV-1">
          <mxGeometry x="1170" y="-220" width="230" height="230" as="geometry">
            <mxRectangle x="230" y="140" width="160" height="26" as="alternateBounds" />
          </mxGeometry>
        </mxCell>
        <mxCell id="Pd0jKTeFEKSQe4IaCQ_c-7" value="- String : nombre" style="text;align=left;verticalAlign=top;spacingLeft=4;spacingRight=4;overflow=hidden;rotatable=0;points=[[0,0.5],[1,0.5]];portConstraint=eastwest;" vertex="1" parent="Pd0jKTeFEKSQe4IaCQ_c-6">
          <mxGeometry y="26" width="230" height="26" as="geometry" />
        </mxCell>
        <mxCell id="Pd0jKTeFEKSQe4IaCQ_c-8" value="- int : id" style="text;align=left;verticalAlign=top;spacingLeft=4;spacingRight=4;overflow=hidden;rotatable=0;points=[[0,0.5],[1,0.5]];portConstraint=eastwest;rounded=0;shadow=0;html=0;" vertex="1" parent="Pd0jKTeFEKSQe4IaCQ_c-6">
          <mxGeometry y="52" width="230" height="26" as="geometry" />
        </mxCell>
        <mxCell id="Pd0jKTeFEKSQe4IaCQ_c-9" value="- int : puntos" style="text;align=left;verticalAlign=top;spacingLeft=4;spacingRight=4;overflow=hidden;rotatable=0;points=[[0,0.5],[1,0.5]];portConstraint=eastwest;rounded=0;shadow=0;html=0;" vertex="1" parent="Pd0jKTeFEKSQe4IaCQ_c-6">
          <mxGeometry y="78" width="230" height="26" as="geometry" />
        </mxCell>
        <mxCell id="Pd0jKTeFEKSQe4IaCQ_c-10" value="" style="line;html=1;strokeWidth=1;align=left;verticalAlign=middle;spacingTop=-1;spacingLeft=3;spacingRight=3;rotatable=0;labelPosition=right;points=[];portConstraint=eastwest;" vertex="1" parent="Pd0jKTeFEKSQe4IaCQ_c-6">
          <mxGeometry y="104" width="230" height="8" as="geometry" />
        </mxCell>
        <mxCell id="Pd0jKTeFEKSQe4IaCQ_c-11" value="+ Defensa(String nombre, int id, int puntos)&#xa;&#xa;+ String getNombre()&#xa;&#xa;+ int getTipo()&#xa;&#xa;+ int getPuntos()" style="text;align=left;verticalAlign=top;spacingLeft=4;spacingRight=4;overflow=hidden;rotatable=0;points=[[0,0.5],[1,0.5]];portConstraint=eastwest;" vertex="1" parent="Pd0jKTeFEKSQe4IaCQ_c-6">
          <mxGeometry y="112" width="230" height="108" as="geometry" />
        </mxCell>
        <mxCell id="Pd0jKTeFEKSQe4IaCQ_c-12" value="HabilidadMagica" style="swimlane;fontStyle=2;align=center;verticalAlign=top;childLayout=stackLayout;horizontal=1;startSize=26;horizontalStack=0;resizeParent=1;resizeLast=0;collapsible=1;marginBottom=0;rounded=0;shadow=0;strokeWidth=1;" vertex="1" parent="WIyWlLk6GJQsqaUBKTNV-1">
          <mxGeometry x="1410" y="-220" width="290" height="230" as="geometry">
            <mxRectangle x="230" y="140" width="160" height="26" as="alternateBounds" />
          </mxGeometry>
        </mxCell>
        <mxCell id="Pd0jKTeFEKSQe4IaCQ_c-13" value="- String : nombre" style="text;align=left;verticalAlign=top;spacingLeft=4;spacingRight=4;overflow=hidden;rotatable=0;points=[[0,0.5],[1,0.5]];portConstraint=eastwest;" vertex="1" parent="Pd0jKTeFEKSQe4IaCQ_c-12">
          <mxGeometry y="26" width="290" height="26" as="geometry" />
        </mxCell>
        <mxCell id="Pd0jKTeFEKSQe4IaCQ_c-14" value="- int : id" style="text;align=left;verticalAlign=top;spacingLeft=4;spacingRight=4;overflow=hidden;rotatable=0;points=[[0,0.5],[1,0.5]];portConstraint=eastwest;rounded=0;shadow=0;html=0;" vertex="1" parent="Pd0jKTeFEKSQe4IaCQ_c-12">
          <mxGeometry y="52" width="290" height="26" as="geometry" />
        </mxCell>
        <mxCell id="Pd0jKTeFEKSQe4IaCQ_c-15" value="- int : puntos" style="text;align=left;verticalAlign=top;spacingLeft=4;spacingRight=4;overflow=hidden;rotatable=0;points=[[0,0.5],[1,0.5]];portConstraint=eastwest;rounded=0;shadow=0;html=0;" vertex="1" parent="Pd0jKTeFEKSQe4IaCQ_c-12">
          <mxGeometry y="78" width="290" height="26" as="geometry" />
        </mxCell>
        <mxCell id="Pd0jKTeFEKSQe4IaCQ_c-16" value="" style="line;html=1;strokeWidth=1;align=left;verticalAlign=middle;spacingTop=-1;spacingLeft=3;spacingRight=3;rotatable=0;labelPosition=right;points=[];portConstraint=eastwest;" vertex="1" parent="Pd0jKTeFEKSQe4IaCQ_c-12">
          <mxGeometry y="104" width="290" height="8" as="geometry" />
        </mxCell>
        <mxCell id="Pd0jKTeFEKSQe4IaCQ_c-17" value="+ HabilidadMagica(String nombre, int id, int puntos)&#xa;&#xa;+ String getNombre()&#xa;&#xa;+ int getTipo()&#xa;&#xa;+ int getPuntos()" style="text;align=left;verticalAlign=top;spacingLeft=4;spacingRight=4;overflow=hidden;rotatable=0;points=[[0,0.5],[1,0.5]];portConstraint=eastwest;" vertex="1" parent="Pd0jKTeFEKSQe4IaCQ_c-12">
          <mxGeometry y="112" width="290" height="108" as="geometry" />
        </mxCell>
        <mxCell id="Pd0jKTeFEKSQe4IaCQ_c-18" value="Guerrero" style="swimlane;fontStyle=2;align=center;verticalAlign=top;childLayout=stackLayout;horizontal=1;startSize=26;horizontalStack=0;resizeParent=1;resizeLast=0;collapsible=1;marginBottom=0;rounded=0;shadow=0;strokeWidth=1;" vertex="1" parent="WIyWlLk6GJQsqaUBKTNV-1">
          <mxGeometry x="680" y="630" width="230" height="140" as="geometry">
            <mxRectangle x="230" y="140" width="160" height="26" as="alternateBounds" />
          </mxGeometry>
        </mxCell>
        <mxCell id="Pd0jKTeFEKSQe4IaCQ_c-22" value="" style="line;html=1;strokeWidth=1;align=left;verticalAlign=middle;spacingTop=-1;spacingLeft=3;spacingRight=3;rotatable=0;labelPosition=right;points=[];portConstraint=eastwest;" vertex="1" parent="Pd0jKTeFEKSQe4IaCQ_c-18">
          <mxGeometry y="26" width="230" height="8" as="geometry" />
        </mxCell>
        <mxCell id="Pd0jKTeFEKSQe4IaCQ_c-23" value="+ Guerrero(String nombre, String traje,&#xa;    String cabello, String colorOjos,&#xa;    String tipoSombrero, String tipoCapa&#xa;    )&#xa;&#xa;+ Guerrero (Guerrero guerrero)&#xa;&#xa;&#xa;&#xa;" style="text;align=left;verticalAlign=top;spacingLeft=4;spacingRight=4;overflow=hidden;rotatable=0;points=[[0,0.5],[1,0.5]];portConstraint=eastwest;" vertex="1" parent="Pd0jKTeFEKSQe4IaCQ_c-18">
          <mxGeometry y="34" width="230" height="96" as="geometry" />
        </mxCell>
        <mxCell id="Pd0jKTeFEKSQe4IaCQ_c-24" value="Arquero" style="swimlane;fontStyle=2;align=center;verticalAlign=top;childLayout=stackLayout;horizontal=1;startSize=26;horizontalStack=0;resizeParent=1;resizeLast=0;collapsible=1;marginBottom=0;rounded=0;shadow=0;strokeWidth=1;" vertex="1" parent="WIyWlLk6GJQsqaUBKTNV-1">
          <mxGeometry x="680" y="320" width="230" height="140" as="geometry">
            <mxRectangle x="230" y="140" width="160" height="26" as="alternateBounds" />
          </mxGeometry>
        </mxCell>
        <mxCell id="Pd0jKTeFEKSQe4IaCQ_c-25" value="" style="line;html=1;strokeWidth=1;align=left;verticalAlign=middle;spacingTop=-1;spacingLeft=3;spacingRight=3;rotatable=0;labelPosition=right;points=[];portConstraint=eastwest;" vertex="1" parent="Pd0jKTeFEKSQe4IaCQ_c-24">
          <mxGeometry y="26" width="230" height="8" as="geometry" />
        </mxCell>
        <mxCell id="Pd0jKTeFEKSQe4IaCQ_c-26" value="+ Arquero(String nombre, String traje,&#xa;     String cabello, String colorOjos,&#xa;    String tipoSombrero, String tipoCapa&#xa;   )&#xa;&#xa;+ Arquero (Arquero arquero)&#xa;&#xa;&#xa;&#xa;" style="text;align=left;verticalAlign=top;spacingLeft=4;spacingRight=4;overflow=hidden;rotatable=0;points=[[0,0.5],[1,0.5]];portConstraint=eastwest;" vertex="1" parent="Pd0jKTeFEKSQe4IaCQ_c-24">
          <mxGeometry y="34" width="230" height="96" as="geometry" />
        </mxCell>
        <mxCell id="Pd0jKTeFEKSQe4IaCQ_c-27" value="Mago" style="swimlane;fontStyle=2;align=center;verticalAlign=top;childLayout=stackLayout;horizontal=1;startSize=26;horizontalStack=0;resizeParent=1;resizeLast=0;collapsible=1;marginBottom=0;rounded=0;shadow=0;strokeWidth=1;" vertex="1" parent="WIyWlLk6GJQsqaUBKTNV-1">
          <mxGeometry x="680" y="475" width="230" height="140" as="geometry">
            <mxRectangle x="230" y="140" width="160" height="26" as="alternateBounds" />
          </mxGeometry>
        </mxCell>
        <mxCell id="Pd0jKTeFEKSQe4IaCQ_c-28" value="" style="line;html=1;strokeWidth=1;align=left;verticalAlign=middle;spacingTop=-1;spacingLeft=3;spacingRight=3;rotatable=0;labelPosition=right;points=[];portConstraint=eastwest;" vertex="1" parent="Pd0jKTeFEKSQe4IaCQ_c-27">
          <mxGeometry y="26" width="230" height="8" as="geometry" />
        </mxCell>
        <mxCell id="Pd0jKTeFEKSQe4IaCQ_c-29" value="+ Mago(String nombre, String traje,&#xa;    String cabello, String colorOjos,&#xa;    String tipoSombrero, String tipoCapa&#xa;    )&#xa;&#xa;+ Mago (Mago mago)&#xa;&#xa;&#xa;&#xa;" style="text;align=left;verticalAlign=top;spacingLeft=4;spacingRight=4;overflow=hidden;rotatable=0;points=[[0,0.5],[1,0.5]];portConstraint=eastwest;" vertex="1" parent="Pd0jKTeFEKSQe4IaCQ_c-27">
          <mxGeometry y="34" width="230" height="96" as="geometry" />
        </mxCell>
        <object label="&lt;&lt;Abstract&gt;&gt; Heroe" carro="sas" uno="sergio" id="Pd0jKTeFEKSQe4IaCQ_c-33">
          <mxCell style="swimlane;fontStyle=2;align=center;verticalAlign=top;childLayout=stackLayout;horizontal=1;startSize=26;horizontalStack=0;resizeParent=1;resizeLast=0;collapsible=1;marginBottom=0;rounded=0;shadow=0;strokeWidth=1;" vertex="1" parent="WIyWlLk6GJQsqaUBKTNV-1">
            <mxGeometry x="1150" y="140" width="300" height="920" as="geometry">
              <mxRectangle x="230" y="140" width="160" height="26" as="alternateBounds" />
            </mxGeometry>
          </mxCell>
        </object>
        <mxCell id="Pd0jKTeFEKSQe4IaCQ_c-34" value="- List&lt;Integer&gt; : registroExperiencia" style="text;align=left;verticalAlign=top;spacingLeft=4;spacingRight=4;overflow=hidden;rotatable=0;points=[[0,0.5],[1,0.5]];portConstraint=eastwest;" vertex="1" parent="Pd0jKTeFEKSQe4IaCQ_c-33">
          <mxGeometry y="26" width="300" height="26" as="geometry" />
        </mxCell>
        <mxCell id="Pd0jKTeFEKSQe4IaCQ_c-35" value="- List&lt;String&gt; : registroNivel" style="text;align=left;verticalAlign=top;spacingLeft=4;spacingRight=4;overflow=hidden;rotatable=0;points=[[0,0.5],[1,0.5]];portConstraint=eastwest;rounded=0;shadow=0;html=0;" vertex="1" parent="Pd0jKTeFEKSQe4IaCQ_c-33">
          <mxGeometry y="52" width="300" height="26" as="geometry" />
        </mxCell>
        <mxCell id="Pd0jKTeFEKSQe4IaCQ_c-36" value="+ String : nombre&#xa;&#xa;+ String : traje&#xa;&#xa;+ String : cabello&#xa;&#xa;+ String : colorOjos&#xa;&#xa;+ String : tipoSombrero&#xa;&#xa;+ String : tipoCapa&#xa;&#xa;- int : experiencia&#xa;&#xa;- String : nivel&#xa;&#xa;- List&lt;Ataque&gt; : ataques&#xa;&#xa;- List&lt;Defensa&gt; : defensa&#xa;&#xa;- List&lt;HabilidadMagica&gt; : habilidadMagica" style="text;align=left;verticalAlign=top;spacingLeft=4;spacingRight=4;overflow=hidden;rotatable=0;points=[[0,0.5],[1,0.5]];portConstraint=eastwest;rounded=0;shadow=0;html=0;" vertex="1" parent="Pd0jKTeFEKSQe4IaCQ_c-33">
          <mxGeometry y="78" width="300" height="312" as="geometry" />
        </mxCell>
        <mxCell id="Pd0jKTeFEKSQe4IaCQ_c-37" value="" style="line;html=1;strokeWidth=1;align=left;verticalAlign=middle;spacingTop=-1;spacingLeft=3;spacingRight=3;rotatable=0;labelPosition=right;points=[];portConstraint=eastwest;" vertex="1" parent="Pd0jKTeFEKSQe4IaCQ_c-33">
          <mxGeometry y="390" width="300" height="8" as="geometry" />
        </mxCell>
        <mxCell id="Pd0jKTeFEKSQe4IaCQ_c-38" value="+ String getNivel()&#xa;&#xa;+ List&lt;String&gt; getRegistroNivel()&#xa;&#xa;+ List&lt;Integer&gt; getRegistroExperiencia()&#xa;&#xa;+ int getExperiencia()&#xa;&#xa;+ List&lt;Ataque&gt; getAtaques()&#xa;&#xa;+ List&lt;Defensa&gt; getDefensa()&#xa;&#xa;+ List&lt;HabilidadMagica&gt; getHabilidadMagica()&#xa;&#xa;+ Heroe(String nombre, String traje, &#xa;String cabello, String colorOjos,&#xa; String tipoSombrero, String tipoCapa,&#xa; List&lt;Ataque&gt; ataques, List&lt;Defensa&gt; defensa,&#xa; List&lt;HabilidadMagica&gt; habilidadMagica, &#xa;List&lt;Integer&gt; registroExperiencia,&#xa; List&lt;String&gt; registroNivel ) &#xa;&#xa;+ Heroe(Heroe heroe)&#xa;&#xa;+ verCualidades()&#xa;&#xa;+ verHabilidadesDeCombate()&#xa;&#xa;+ verHistorialExperiencia()&#xa;&#xa;+ verHistorialNivel()&#xa;&#xa;- ajustarNivel(int experiencia)&#xa;&#xa;+ abstract Heroe clone()&#xa;&#xa;" style="text;align=left;verticalAlign=top;spacingLeft=4;spacingRight=4;overflow=hidden;rotatable=0;points=[[0,0.5],[1,0.5]];portConstraint=eastwest;" vertex="1" parent="Pd0jKTeFEKSQe4IaCQ_c-33">
          <mxGeometry y="398" width="300" height="512" as="geometry" />
        </mxCell>
        <mxCell id="Pd0jKTeFEKSQe4IaCQ_c-42" value="CacheHeroes" style="swimlane;fontStyle=2;align=center;verticalAlign=top;childLayout=stackLayout;horizontal=1;startSize=26;horizontalStack=0;resizeParent=1;resizeLast=0;collapsible=1;marginBottom=0;rounded=0;shadow=0;strokeWidth=1;" vertex="1" parent="WIyWlLk6GJQsqaUBKTNV-1">
          <mxGeometry x="230" y="495" width="230" height="120" as="geometry">
            <mxRectangle x="230" y="140" width="160" height="26" as="alternateBounds" />
          </mxGeometry>
        </mxCell>
        <mxCell id="Pd0jKTeFEKSQe4IaCQ_c-43" value="- Map&lt;String, Heroe&gt; : cache" style="text;align=left;verticalAlign=top;spacingLeft=4;spacingRight=4;overflow=hidden;rotatable=0;points=[[0,0.5],[1,0.5]];portConstraint=eastwest;" vertex="1" parent="Pd0jKTeFEKSQe4IaCQ_c-42">
          <mxGeometry y="26" width="230" height="26" as="geometry" />
        </mxCell>
        <mxCell id="Pd0jKTeFEKSQe4IaCQ_c-46" value="" style="line;html=1;strokeWidth=1;align=left;verticalAlign=middle;spacingTop=-1;spacingLeft=3;spacingRight=3;rotatable=0;labelPosition=right;points=[];portConstraint=eastwest;" vertex="1" parent="Pd0jKTeFEKSQe4IaCQ_c-42">
          <mxGeometry y="52" width="230" height="8" as="geometry" />
        </mxCell>
        <mxCell id="Pd0jKTeFEKSQe4IaCQ_c-47" value="+ CacheHeroe() &#xa;" style="text;align=left;verticalAlign=top;spacingLeft=4;spacingRight=4;overflow=hidden;rotatable=0;points=[[0,0.5],[1,0.5]];portConstraint=eastwest;" vertex="1" parent="Pd0jKTeFEKSQe4IaCQ_c-42">
          <mxGeometry y="60" width="230" height="30" as="geometry" />
        </mxCell>
        <mxCell id="Pd0jKTeFEKSQe4IaCQ_c-66" value="+ Heroe : get(String key) &#xa;" style="text;align=left;verticalAlign=top;spacingLeft=4;spacingRight=4;overflow=hidden;rotatable=0;points=[[0,0.5],[1,0.5]];portConstraint=eastwest;" vertex="1" parent="Pd0jKTeFEKSQe4IaCQ_c-42">
          <mxGeometry y="90" width="230" height="30" as="geometry" />
        </mxCell>
        <mxCell id="Pd0jKTeFEKSQe4IaCQ_c-48" value="Extends" style="endArrow=block;endSize=16;endFill=0;html=1;rounded=0;entryX=0;entryY=0.59;entryDx=0;entryDy=0;entryPerimeter=0;" edge="1" parent="WIyWlLk6GJQsqaUBKTNV-1" source="Pd0jKTeFEKSQe4IaCQ_c-26" target="Pd0jKTeFEKSQe4IaCQ_c-36">
          <mxGeometry width="160" relative="1" as="geometry">
            <mxPoint x="900" y="402" as="sourcePoint" />
            <mxPoint x="1140" y="402" as="targetPoint" />
          </mxGeometry>
        </mxCell>
        <mxCell id="Pd0jKTeFEKSQe4IaCQ_c-49" value="Extends" style="endArrow=block;endSize=16;endFill=0;html=1;rounded=0;" edge="1" parent="WIyWlLk6GJQsqaUBKTNV-1">
          <mxGeometry width="160" relative="1" as="geometry">
            <mxPoint x="910" y="541" as="sourcePoint" />
            <mxPoint x="1150" y="540" as="targetPoint" />
          </mxGeometry>
        </mxCell>
        <mxCell id="Pd0jKTeFEKSQe4IaCQ_c-50" value="Extends" style="endArrow=block;endSize=16;endFill=0;html=1;rounded=0;" edge="1" parent="WIyWlLk6GJQsqaUBKTNV-1">
          <mxGeometry width="160" relative="1" as="geometry">
            <mxPoint x="910" y="691" as="sourcePoint" />
            <mxPoint x="1150" y="690" as="targetPoint" />
          </mxGeometry>
        </mxCell>
        <mxCell id="Pd0jKTeFEKSQe4IaCQ_c-53" value="" style="endArrow=block;dashed=1;endFill=0;endSize=12;html=1;rounded=0;exitX=0.25;exitY=0;exitDx=0;exitDy=0;" edge="1" parent="WIyWlLk6GJQsqaUBKTNV-1" source="Pd0jKTeFEKSQe4IaCQ_c-33">
          <mxGeometry width="160" relative="1" as="geometry">
            <mxPoint x="1060" y="170" as="sourcePoint" />
            <mxPoint x="1060" y="10" as="targetPoint" />
          </mxGeometry>
        </mxCell>
        <mxCell id="Pd0jKTeFEKSQe4IaCQ_c-54" value="Use" style="edgeLabel;html=1;align=center;verticalAlign=middle;resizable=0;points=[];" vertex="1" connectable="0" parent="Pd0jKTeFEKSQe4IaCQ_c-53">
          <mxGeometry x="-0.1088" y="2" relative="1" as="geometry">
            <mxPoint x="1" as="offset" />
          </mxGeometry>
        </mxCell>
        <mxCell id="Pd0jKTeFEKSQe4IaCQ_c-55" value="" style="endArrow=block;dashed=1;endFill=0;endSize=12;html=1;rounded=0;" edge="1" parent="WIyWlLk6GJQsqaUBKTNV-1" source="Pd0jKTeFEKSQe4IaCQ_c-33">
          <mxGeometry width="160" relative="1" as="geometry">
            <mxPoint x="1205" y="60" as="sourcePoint" />
            <mxPoint x="1290" y="10" as="targetPoint" />
          </mxGeometry>
        </mxCell>
        <mxCell id="Pd0jKTeFEKSQe4IaCQ_c-56" value="Use" style="edgeLabel;html=1;align=center;verticalAlign=middle;resizable=0;points=[];" vertex="1" connectable="0" parent="Pd0jKTeFEKSQe4IaCQ_c-55">
          <mxGeometry x="-0.1088" y="2" relative="1" as="geometry">
            <mxPoint x="1" as="offset" />
          </mxGeometry>
        </mxCell>
        <mxCell id="Pd0jKTeFEKSQe4IaCQ_c-57" value="" style="endArrow=block;dashed=1;endFill=0;endSize=12;html=1;rounded=0;exitX=0.75;exitY=0;exitDx=0;exitDy=0;" edge="1" parent="WIyWlLk6GJQsqaUBKTNV-1" source="Pd0jKTeFEKSQe4IaCQ_c-33">
          <mxGeometry width="160" relative="1" as="geometry">
            <mxPoint x="1450" y="80" as="sourcePoint" />
            <mxPoint x="1520" y="10" as="targetPoint" />
          </mxGeometry>
        </mxCell>
        <mxCell id="Pd0jKTeFEKSQe4IaCQ_c-58" value="Use" style="edgeLabel;html=1;align=center;verticalAlign=middle;resizable=0;points=[];" vertex="1" connectable="0" parent="Pd0jKTeFEKSQe4IaCQ_c-57">
          <mxGeometry x="-0.1088" y="2" relative="1" as="geometry">
            <mxPoint x="1" as="offset" />
          </mxGeometry>
        </mxCell>
        <mxCell id="Pd0jKTeFEKSQe4IaCQ_c-60" value="" style="endArrow=block;dashed=1;endFill=0;endSize=12;html=1;rounded=0;exitX=1;exitY=0.5;exitDx=0;exitDy=0;entryX=-0.017;entryY=-0.07;entryDx=0;entryDy=0;entryPerimeter=0;" edge="1" parent="WIyWlLk6GJQsqaUBKTNV-1" source="Pd0jKTeFEKSQe4IaCQ_c-70" target="Pd0jKTeFEKSQe4IaCQ_c-47">
          <mxGeometry width="160" relative="1" as="geometry">
            <mxPoint x="414" y="495" as="sourcePoint" />
            <mxPoint x="249" y="365" as="targetPoint" />
          </mxGeometry>
        </mxCell>
        <mxCell id="Pd0jKTeFEKSQe4IaCQ_c-61" value="Use" style="edgeLabel;html=1;align=center;verticalAlign=middle;resizable=0;points=[];" vertex="1" connectable="0" parent="Pd0jKTeFEKSQe4IaCQ_c-60">
          <mxGeometry x="-0.1088" y="2" relative="1" as="geometry">
            <mxPoint x="1" as="offset" />
          </mxGeometry>
        </mxCell>
        <mxCell id="Pd0jKTeFEKSQe4IaCQ_c-62" value="" style="endArrow=block;dashed=1;endFill=0;endSize=12;html=1;rounded=0;exitX=1.008;exitY=0.14;exitDx=0;exitDy=0;exitPerimeter=0;" edge="1" parent="WIyWlLk6GJQsqaUBKTNV-1" source="Pd0jKTeFEKSQe4IaCQ_c-47">
          <mxGeometry width="160" relative="1" as="geometry">
            <mxPoint x="645" y="595" as="sourcePoint" />
            <mxPoint x="680" y="560" as="targetPoint" />
          </mxGeometry>
        </mxCell>
        <mxCell id="Pd0jKTeFEKSQe4IaCQ_c-63" value="Use" style="edgeLabel;html=1;align=center;verticalAlign=middle;resizable=0;points=[];" vertex="1" connectable="0" parent="Pd0jKTeFEKSQe4IaCQ_c-62">
          <mxGeometry x="-0.1088" y="2" relative="1" as="geometry">
            <mxPoint x="1" as="offset" />
          </mxGeometry>
        </mxCell>
        <mxCell id="Pd0jKTeFEKSQe4IaCQ_c-64" value="" style="endArrow=block;dashed=1;endFill=0;endSize=12;html=1;rounded=0;exitX=0.75;exitY=1;exitDx=0;exitDy=0;" edge="1" parent="WIyWlLk6GJQsqaUBKTNV-1" source="Pd0jKTeFEKSQe4IaCQ_c-42" target="Pd0jKTeFEKSQe4IaCQ_c-23">
          <mxGeometry width="160" relative="1" as="geometry">
            <mxPoint x="535" y="715" as="sourcePoint" />
            <mxPoint x="370" y="585" as="targetPoint" />
          </mxGeometry>
        </mxCell>
        <mxCell id="Pd0jKTeFEKSQe4IaCQ_c-65" value="Use" style="edgeLabel;html=1;align=center;verticalAlign=middle;resizable=0;points=[];" vertex="1" connectable="0" parent="Pd0jKTeFEKSQe4IaCQ_c-64">
          <mxGeometry x="-0.1088" y="2" relative="1" as="geometry">
            <mxPoint x="1" as="offset" />
          </mxGeometry>
        </mxCell>
        <mxCell id="Pd0jKTeFEKSQe4IaCQ_c-67" value="Main&#xa;" style="swimlane;fontStyle=2;align=center;verticalAlign=top;childLayout=stackLayout;horizontal=1;startSize=26;horizontalStack=0;resizeParent=1;resizeLast=0;collapsible=1;marginBottom=0;rounded=0;shadow=0;strokeWidth=1;" vertex="1" parent="WIyWlLk6GJQsqaUBKTNV-1">
          <mxGeometry x="-70" y="480" width="230" height="150" as="geometry">
            <mxRectangle x="230" y="140" width="160" height="26" as="alternateBounds" />
          </mxGeometry>
        </mxCell>
        <mxCell id="Pd0jKTeFEKSQe4IaCQ_c-68" value="Heroe : heroe" style="text;align=left;verticalAlign=top;spacingLeft=4;spacingRight=4;overflow=hidden;rotatable=0;points=[[0,0.5],[1,0.5]];portConstraint=eastwest;" vertex="1" parent="Pd0jKTeFEKSQe4IaCQ_c-67">
          <mxGeometry y="26" width="230" height="26" as="geometry" />
        </mxCell>
        <mxCell id="Pd0jKTeFEKSQe4IaCQ_c-69" value="" style="line;html=1;strokeWidth=1;align=left;verticalAlign=middle;spacingTop=-1;spacingLeft=3;spacingRight=3;rotatable=0;labelPosition=right;points=[];portConstraint=eastwest;" vertex="1" parent="Pd0jKTeFEKSQe4IaCQ_c-67">
          <mxGeometry y="52" width="230" height="8" as="geometry" />
        </mxCell>
        <mxCell id="Pd0jKTeFEKSQe4IaCQ_c-70" value="+ inicarHeroes() &#xa;" style="text;align=left;verticalAlign=top;spacingLeft=4;spacingRight=4;overflow=hidden;rotatable=0;points=[[0,0.5],[1,0.5]];portConstraint=eastwest;" vertex="1" parent="Pd0jKTeFEKSQe4IaCQ_c-67">
          <mxGeometry y="60" width="230" height="30" as="geometry" />
        </mxCell>
        <mxCell id="Pd0jKTeFEKSQe4IaCQ_c-71" value="+ verHabilidadesHeroes()&#xa;&#xa;+ verCualidadesHeroes()&#xa;" style="text;align=left;verticalAlign=top;spacingLeft=4;spacingRight=4;overflow=hidden;rotatable=0;points=[[0,0.5],[1,0.5]];portConstraint=eastwest;" vertex="1" parent="Pd0jKTeFEKSQe4IaCQ_c-67">
          <mxGeometry y="90" width="230" height="60" as="geometry" />
        </mxCell>
        <mxCell id="Pd0jKTeFEKSQe4IaCQ_c-72" value="" style="endArrow=block;dashed=1;endFill=0;endSize=12;html=1;rounded=0;exitX=0.25;exitY=0;exitDx=0;exitDy=0;entryX=0;entryY=0.5;entryDx=0;entryDy=0;" edge="1" parent="WIyWlLk6GJQsqaUBKTNV-1">
          <mxGeometry width="160" relative="1" as="geometry">
            <mxPoint x="424" y="505" as="sourcePoint" />
            <mxPoint x="690" y="412" as="targetPoint" />
          </mxGeometry>
        </mxCell>
        <mxCell id="Pd0jKTeFEKSQe4IaCQ_c-73" value="Use" style="edgeLabel;html=1;align=center;verticalAlign=middle;resizable=0;points=[];" vertex="1" connectable="0" parent="Pd0jKTeFEKSQe4IaCQ_c-72">
          <mxGeometry x="-0.1088" y="2" relative="1" as="geometry">
            <mxPoint x="1" as="offset" />
          </mxGeometry>
        </mxCell>
      </root>
    </mxGraphModel>
  </diagram>
</mxfile>
